<svg xmlns="http://www.w3.org/2000/svg" width="220" height="240" viewBox="0 0 220 240">
  <path d="M168.944272,215.527864 C171.414164,220.467649 169.411921,226.474379 164.472136,228.944272 C159.532351,231.414164 153.525621,229.411921 151.055728,224.472136 L145.239927,212.840534 C134.417331,217.449632 122.50681,220 110,220 C97.49319,220 85.5826685,217.449632 74.7600731,212.840534 L68.9442719,224.472136 C66.4743794,229.411921 60.467649,231.414164 55.527864,228.944272 C50.5880791,226.474379 48.5858356,220.467649 51.0557281,215.527864 L57.326332,202.986656 C34.7128323,186.639147 20,160.03954 20,130 C20,110.568682 26.1562218,92.5767189 36.6248726,77.8679036 C29.5,81.5 23.5256206,79.4119209 21.0557281,74.472136 L11.0557281,54.472136 C8.5858356,49.532351 10.5880791,43.5256206 15.527864,41.0557281 L75.527864,11.0557281 C80.467649,8.5858356 86.4743794,10.5880791 88.9442719,15.527864 L98.9442719,35.527864 C99.7512153,37.1417508 100.0808,38.8695241 99.986542,40.550634 C103.274192,40.186793 106.615259,40 110,40 C113.384741,40 116.725808,40.186793 120.013458,40.550634 C119.9192,38.8695241 120.248785,37.1417508 121.055728,35.527864 L131.055728,15.527864 C133.525621,10.5880791 139.532351,8.5858356 144.472136,11.0557281 L204.472136,41.0557281 C209.411921,43.5256206 211.414164,49.532351 208.944272,54.472136 L198.944272,74.472136 C196.474379,79.4119209 190.5,81.5 183.375127,77.8679036 C193.843778,92.5767189 200,110.568682 200,130 C200,160.03954 185.287168,186.639147 162.673668,202.986656 L168.944272,215.527864 Z M110,60 C71.41,60 40,91.41 40,130 C40,168.59 71.41,200 110,200 C148.59,200 180,168.59 180,130 C180,91.41 148.59,60 110,60 Z M110,70 C143.12,70 170,96.86 170,130 C170,163.12 143.12,190 110,190 C76.88,190 50,163.12 50,130 C50,96.86 76.88,70 110,70 Z M110,80 C82.43,80 60,102.43 60,130 C60,157.57 82.43,180 110,180 C137.57,180 160,157.57 160,130 C160,102.43 137.57,80 110,80 Z M120,120 L140,120 C145.5,120 150,124.5 150,130 C150,135.5 145.5,140 140,140 L110,140 C107.25,140 104.75,138.875 102.9375,137.0625 C101.125,135.25 100,132.75 100,130 L100,100 C100,94.5 104.5,90 110,90 C115.5,90 120,94.5 120,100 L120,120 Z"/>
</svg>
