<svg xmlns="http://www.w3.org/2000/svg" width="240" height="240" viewBox="0 0 240 240">
  <g fill="none" fill-rule="evenodd">
    <path fill="#000" fill-rule="nonzero" d="M220,10 C225.522847,10 230,14.4771525 230,20 L230,220 C230,225.522847 225.522847,230 220,230 L20,230 C14.4771525,230 10,225.522847 10,220 L10,20 C10,14.4771525 14.4771525,10 20,10 L220,10 Z M30,30 L30,210 L210,210 L210,30 L30,30 Z"/>
    <path fill="#000" fill-rule="nonzero" d="M120,160 C125.522847,160 130,164.477153 130,170 C130,175.522847 125.522847,180 120,180 C114.477153,180 110,175.522847 110,170 C110,164.477153 114.477153,160 120,160 Z M120,60 C125.522847,60 130,64.4771525 130,70 L130,70 L130,140 C130,145.522847 125.522847,150 120,150 C114.477153,150 110,145.522847 110,140 L110,140 L110,70 C110,64.4771525 114.477153,60 120,60 Z"/>
  </g>
</svg>
