<svg xmlns="http://www.w3.org/2000/svg" width="240" height="240" viewBox="0 0 240 240">
  <g fill="none" fill-rule="evenodd">
    <path fill="#000" fill-rule="nonzero" d="M220,10 C225.522847,10 230,14.4771525 230,20 L230,220 C230,225.522847 225.522847,230 220,230 L20,230 C14.4771525,230 10,225.522847 10,220 L10,20 C10,14.4771525 14.4771525,10 20,10 L220,10 Z M30,30 L30,210 L210,210 L210,30 L30,30 Z"/>
    <path fill="#000" d="M120,160 C125.522847,160 130,164.477153 130,170 C130,175.522847 125.522847,180 120,180 C114.477153,180 110,175.522847 110,170 C110,164.477153 114.477153,160 120,160 Z M130.000022,60 C146.566936,60 160,73.4358892 160,90.0000108 C160,98.8658808 154.605649,108.948071 147.230169,113.865058 L147.230169,113.865058 L133.863835,122.775948 C132.052511,123.983497 130,127.819531 130,130 L130,130 L130,140 C130,145.522847 125.522847,150 120,150 C114.477153,150 110,145.522847 110,140 L110,140 L110,130 C110,121.133184 115.393937,111.052204 122.769831,106.134942 L122.769831,106.134942 L136.136165,97.2240524 C137.946962,96.0168544 140,92.1796698 140,90.0000108 C140,84.4806427 135.5203,80 130.000022,80 L130.000022,80 L109.999978,80 C104.474368,80 100,84.4741917 100,90 C100,95.5228475 95.5228475,100 90,100 C84.4771525,100 80,95.5228475 80,89.996357 C80,73.4283207 93.4288485,60 109.999978,60 L109.999978,60 Z"/>
  </g>
</svg>
