<svg xmlns="http://www.w3.org/2000/svg" width="240" height="240" viewBox="0 0 240 240">
  <g fill="none" fill-rule="evenodd">
    <path fill="#000" fill-rule="nonzero" d="M120,10 C180.751322,10 230,59.2486775 230,120 C230,180.751322 180.751322,230 120,230 C59.2486775,230 10,180.751322 10,120 C10,59.2486775 59.2486775,10 120,10 Z M120,30 C70.2943725,30 30,70.2943725 30,120 C30,169.705627 70.2943725,210 120,210 C169.705627,210 210,169.705627 210,120 C210,70.2943725 169.705627,30 120,30 Z"/>
    <path fill="#000" fill-rule="nonzero" d="M158,86 C161.313708,81.581722 160.418278,75.3137085 156,72 C151.581722,68.6862915 145.313708,69.581722 142,74 L120,103.333333 L98,74 C94.6862915,69.581722 88.418278,68.6862915 84,72 C79.581722,75.3137085 78.6862915,81.581722 82,86 L110,123.333333 L110,160 C110,165.522847 114.477153,170 120,170 C125.522847,170 130,165.522847 130,160 L130,123.333333 L158,86 Z"/>
  </g>
</svg>
