<svg xmlns="http://www.w3.org/2000/svg" width="240" height="240" viewBox="0 0 240 240">
  <g fill="none" fill-rule="evenodd">
    <path fill="#000" fill-rule="nonzero" d="M220,10 C225.522847,10 230,14.4771525 230,20 L230,220 C230,225.522847 225.522847,230 220,230 L20,230 C14.4771525,230 10,225.522847 10,220 L10,80 C10,77.3478351 11.0535684,74.804296 12.9289322,72.9289322 L72.9289322,12.9289322 C74.804296,11.0535684 77.3478351,10 80,10 L220,10 Z M210,30 L84.1421356,30 L30,84.1421356 L30,210 L210,210 L210,30 Z"/>
    <path fill="#000" d="M110,150 L110,80 C110,74.4771525 105.522847,70 100,70 C94.4771525,70 90,74.4771525 90,80 L90,160 C90,165.522847 94.4771525,170 100,170 L160,170 C165.522847,170 170,165.522847 170,160 C170,154.477153 165.522847,150 160,150 L110,150 Z"/>
  </g>
</svg>
