<svg xmlns="http://www.w3.org/2000/svg" width="240" height="240" viewBox="0 0 240 240">
  <g fill="none" fill-rule="evenodd">
    <path fill="#000" fill-rule="nonzero" d="M160,10 C162.652165,10 165.195704,11.0535684 167.071068,12.9289322 L227.071068,72.9289322 C228.946432,74.804296 230,77.3478351 230,80 L230,220 C230,225.522847 225.522847,230 220,230 L20,230 C14.4771525,230 10,225.522847 10,220 L10,20 C10,14.4771525 14.4771525,10 20,10 L160,10 Z M155.857864,30 L30,30 L30,210 L210,210 L210,84.1421356 L155.857864,30 Z"/>
    <path fill="#000" d="M120.000022,70 C136.571559,70 150,83.4303593 150,100 C150,113.443358 141.159933,124.819569 128.975811,128.634414 L148,154 C151.313708,158.418278 150.418278,164.686292 146,168 C141.581722,171.313708 135.313708,170.418278 132,166 L105,130 L90,130 L90,160 C90,165.522847 85.5228475,170 80,170 C74.4771525,170 70,165.522847 70,160 L70,80 C70,77.2385763 71.1192881,74.7385763 72.9289322,72.9289322 C74.7385763,71.1192881 77.2385763,70 80,70 L120.000022,70 Z M120.000022,90 L90,90 L90,110 L120.000022,110 C125.523881,110 130,105.524252 130,100 C130,94.4754147 125.525225,90 120.000022,90 Z"/>
  </g>
</svg>
