<svg xmlns="http://www.w3.org/2000/svg" width="240" height="240" viewBox="0 0 240 240">
  <path d="M120,10 C180.751322,10 230,59.2486775 230,120 C230,180.751322 180.751322,230 120,230 C59.2486775,230 10,180.751322 10,120 C10,59.2486775 59.2486775,10 120,10 Z M120,30 C70.2943725,30 30,70.2943725 30,120 C30,169.705627 70.2943725,210 120,210 C169.705627,210 210,169.705627 210,120 C210,70.2943725 169.705627,30 120,30 Z M128.944272,75.527864 L168.944272,155.527864 C171.414164,160.467649 169.411921,166.474379 164.472136,168.944272 C159.532351,171.414164 153.525621,169.411921 151.055728,164.472136 L143.81966,150 L96.1803399,150 L88.9442719,164.472136 C86.4743794,169.411921 80.467649,171.414164 75.527864,168.944272 C70.5880791,166.474379 68.5858356,160.467649 71.0557281,155.527864 L111.055728,75.527864 C114.740971,68.1573787 125.259029,68.1573787 128.944272,75.527864 Z M120,102.36068 L106.18034,130 L133.81966,130 L120,102.36068 Z"/>
</svg>
