<svg xmlns="http://www.w3.org/2000/svg" width="240" height="240" viewBox="0 0 240 240">
  <g fill="none" fill-rule="evenodd">
    <path fill="#000" fill-rule="nonzero" d="M120,10 C180.751322,10 230,59.2486775 230,120 C230,180.751322 180.751322,230 120,230 C59.2486775,230 10,180.751322 10,120 C10,59.2486775 59.2486775,10 120,10 Z M120,30 C70.2943725,30 30,70.2943725 30,120 C30,169.705627 70.2943725,210 120,210 C169.705627,210 210,169.705627 210,120 C210,70.2943725 169.705627,30 120,30 Z"/>
    <path fill="#000" fill-rule="nonzero" d="M90,170 C85,170 80,166.666667 80,160 L80,80 C80,74.4771525 84.4771525,70 90,70 L130.000022,70 C146.569206,70 160,83.4296823 160,100 C160,107.683996 157.112157,114.692876 152.362218,120.000319 C157.111981,125.307589 160,132.316129 160,140 C160,156.569641 146.571559,170 130.000022,170 L90.0000107,170 L90,170 Z M100,130 L100,150 L130.000022,150 C135.525225,150 140,145.524585 140,140 C140,134.475748 135.523881,130 130.000022,130 L100,130 Z M100,90 L100,110 L130.000022,110 C135.525225,110 140,105.524585 140,100 C140,94.475748 135.523881,90 130.000022,90 L100,90 Z"/>
  </g>
</svg>
