<svg xmlns="http://www.w3.org/2000/svg" width="220" height="240" viewBox="0 0 220 240">
  <path d="M160,200 L50,200 C27.94,200 10,182.06 10,160 C10,141.39 22.77,125.71 40.01,121.26 L40,120 C40,86.91 66.91,60 100,60 C125.87,60 148.24,76.38 156.5,100.15 C185.92,97.69 210,121.28 210,150 C210,177.57 187.57,200 160,200 Z M49.05,139.94 C38.97,140 30,148.97 30,160 C30,171.03 38.97,180 50,180 L160,180 C176.54,180 190,166.54 190,150 C190,133.46 176.54,120 160,120 C157.57,120 155,120.41 151.9,121.3 L141.15,124.37 L139.29,113.34 C136.04,94.02 119.52,80 100,80 C77.94,80 60,97.94 60,120 C60,122.72 60.27,125.45 60.82,128.11 L63.26,140.1 L49.05,139.94 L49.05,139.94 Z"/>
</svg>
