<svg xmlns="http://www.w3.org/2000/svg" width="200" height="240" viewBox="0 0 200 240">
  <path d="M100,125.857864 L27.0710678,52.9289322 C23.1658249,49.0236893 16.8341751,49.0236893 12.9289322,52.9289322 C9.02368927,56.8341751 9.02368927,63.1658249 12.9289322,67.0710678 L85.8578644,140 L12.9289322,212.928932 C9.02368927,216.834175 9.02368927,223.165825 12.9289322,227.071068 C16.8341751,230.976311 23.1658249,230.976311 27.0710678,227.071068 L100,154.142136 L172.928932,227.071068 C176.834175,230.976311 183.165825,230.976311 187.071068,227.071068 C190.976311,223.165825 190.976311,216.834175 187.071068,212.928932 L114.142136,140 L187.071068,67.0710678 C190.976311,63.1658249 190.976311,56.8341751 187.071068,52.9289322 C183.165825,49.0236893 176.834175,49.0236893 172.928932,52.9289322 L100,125.857864 L100,125.857864 Z"/>
</svg>
