<svg xmlns="http://www.w3.org/2000/svg" width="150" height="240" viewBox="0 0 150 240">
  <path d="M110,30 L40,30 C23.46,30 10,43.46 10,60 L10,180 C10,196.54 23.46,210 40,210 L110,210 C126.54,210 140,196.54 140,180 L140,60 C140,43.46 126.54,30 110,30 Z M120,180 C120,185.51 115.51,190 110,190 L40,190 C34.49,190 30,185.51 30,180 L30,60 C30,54.49 34.49,50 40,50 L110,50 C115.51,50 120,54.49 120,60 L120,180 Z M100,60 L50,60 C44.5,60 40,64.5 40,70 L40,160 C40,165.5 44.5,170 50,170 L65,170 C65,175.53 69.48,180 75,180 C80.52,180 85,175.53 85,170 L100,170 C105.5,170 110,165.5 110,160 L110,70 C110,64.5 105.5,60 100,60 Z M100,160 L50,160 L50,70 L100,70 L100,160 Z"/>
</svg>
