<svg xmlns="http://www.w3.org/2000/svg" width="229" height="240" viewBox="0 0 229 240">
  <path fill-rule="evenodd" d="M150,20 C155.522847,20 160,24.4771525 160,30 L160,80 L210,80 C215.522847,80 220,84.4771525 220,90 L220,160 C220,165.522847 215.522847,170 210,170 L160,170 L160,220 C160,225.522847 155.522847,230 150,230 L80,230 C74.4771525,230 70,225.522847 70,220 L70,170 L20,170 C14.4771525,170 10,165.522847 10,160 L10,90 C10,84.4771525 14.4771525,80 20,80 L70,80 L70,30 C70,24.4771525 74.4771525,20 80,20 L150,20 Z M140,40 L90,40 L90,90 C90,95.5228475 85.5228475,100 80,100 L30,100 L30,150 L80,150 C85.5228475,150 90,154.477153 90,160 L90,210 L140,210 L140,160 C140,154.477153 144.477153,150 150,150 L200,150 L200,100 L150,100 C144.477153,100 140,95.5228475 140,90 L140,40 Z M115,170 C117.761424,170 120,172.238576 120,175 L120,175 L120,195 C120,197.761424 117.761424,200 115,200 C112.238576,200 110,197.761424 110,195 L110,195 L110,175 C110,172.238576 112.238576,170 115,170 Z M64.9999962,120 C67.7614199,119.999998 69.9999979,122.238572 70,124.999996 C70.0000021,127.76142 67.7614276,129.999998 65.0000038,130 L65.0000038,130 L45.0000038,130.000015 C42.2385801,130.000017 40.0000021,127.761443 40,125.000019 C39.9999979,122.238595 42.2385724,120.000017 44.9999962,120.000015 L44.9999962,120.000015 Z M184.999996,119.999985 C187.76142,119.999983 189.999998,122.238557 190,124.999981 C190.000002,127.761405 187.761428,129.999983 185.000004,129.999985 L185.000004,129.999985 L165.000004,130 C162.23858,130.000002 160.000002,127.761428 160,125.000004 C159.999998,122.23858 162.238572,120.000002 164.999996,120 L164.999996,120 Z M115,50 C117.761424,50 120,52.2385763 120,55 L120,55 L120,75 C120,77.7614237 117.761424,80 115,80 C112.238576,80 110,77.7614237 110,75 L110,75 L110,55 C110,52.2385763 112.238576,50 115,50 Z"/>
</svg>
