<svg xmlns="http://www.w3.org/2000/svg" width="200" height="240" viewBox="0 0 200 240">
  <path d="M159.998895,70 C176.567681,70 190,83.4319084 190,99.9998987 L190,170.000101 C190,186.571314 176.574985,200 159.998895,200 L40.0011051,200 C23.4323185,200 10,186.568092 10,170.000101 L10,99.9998987 C10,83.4286861 23.4250149,70 40.0011051,70 L159.998895,70 Z M170,117.07 L148.535534,138.535534 C147.597852,139.473216 146.326082,140 145,140 L145,140 L55,140 C53.6739176,140 52.402148,139.473216 51.4644661,138.535534 L51.4644661,138.535534 L30,117.071 L30,170.000101 C30,175.52226 34.4778768,180 40.0011051,180 L159.998895,180 C165.528066,180 170,175.526843 170,170.000101 L170,117.07 Z M159.998895,90 L40.0011051,90 C34.4719343,90 30,94.4731572 30,99.9998987 L30,102.929 L57.0710678,130 L142.928932,130 L170,102.928 L170,99.9998987 C170,94.4777401 165.522123,90 159.998895,90 Z"/>
</svg>
