<svg xmlns="http://www.w3.org/2000/svg" width="240" height="240" viewBox="0 0 240 240">
  <g fill="none" fill-rule="evenodd">
    <path fill="#000" fill-rule="nonzero" d="M220,10 C225.522847,10 230,14.4771525 230,20 L230,220 C230,225.522847 225.522847,230 220,230 L20,230 C14.4771525,230 10,225.522847 10,220 L10,20 C10,14.4771525 14.4771525,10 20,10 L220,10 Z M210,30 L30,30 L30,210 L210,210 L210,30 Z"/>
    <path fill="#000" d="M164.103448,142.758621 C168.102752,138.94976 174.432519,139.104145 178.241379,143.103448 C182.05024,147.102752 181.895855,153.432519 177.896552,157.241379 C177.619891,157.504866 177.180751,157.904386 176.584449,158.420506 C175.655899,159.224196 174.581803,160.104465 173.367215,161.041767 C169.957399,163.673136 166.054383,166.288222 161.694817,168.727141 C149.13373,175.754322 135.282206,180 120.5,180 C105.717794,180 91.8662702,175.754322 79.3051835,168.727141 C74.9456171,166.288222 71.0426007,163.673136 67.6327852,161.041767 C66.4181973,160.104465 65.3441005,159.224196 64.415551,158.420506 C63.8192488,157.904386 63.3801095,157.504866 63.1034483,157.241379 C59.1041449,153.432519 58.9497603,147.102752 62.7586207,143.103448 C66.567481,139.104145 72.8972484,138.94976 76.9725607,142.827747 C77.113415,142.955893 77.2909747,143.113543 77.5043709,143.298244 C78.1554112,143.861741 78.9402011,144.50491 79.8515898,145.208233 C82.515993,147.264364 85.6090704,149.336778 89.0698165,151.272859 C98.8524798,156.745678 109.469706,160 120.5,160 C131.530294,160 142.14752,156.745678 151.930183,151.272859 C155.39093,149.336778 158.484007,147.264364 161.14841,145.208233 C162.059799,144.50491 162.844589,143.861741 163.495629,143.298244 C163.709025,143.113543 163.886585,142.955893 164.103448,142.758621 Z M160,60 C165.522847,60 170,64.4771525 170,70 L170,70 L170,100 C170,105.522847 165.522847,110 160,110 C154.477153,110 150,105.522847 150,100 L150,100 L150,70 C150,64.4771525 154.477153,60 160,60 Z M80,60 C85.5228475,60 90,64.4771525 90,70 L90,70 L90,100 C90,105.522847 85.5228475,110 80,110 C74.4771525,110 70,105.522847 70,100 L70,100 L70,70 C70,64.4771525 74.4771525,60 80,60 Z"/>
  </g>
</svg>
