<svg xmlns="http://www.w3.org/2000/svg" width="240" height="240" viewBox="0 0 240 240">
  <g fill="none" fill-rule="evenodd">
    <path fill="#000" fill-rule="nonzero" d="M220,10 C225.522847,10 230,14.4771525 230,20 L230,220 C230,225.522847 225.522847,230 220,230 L20,230 C14.4771525,230 10,225.522847 10,220 L10,20 C10,14.4771525 14.4771525,10 20,10 L220,10 Z M30,30 L30,210 L210,210 L210,30 L30,30 Z"/>
    <path fill="#000" fill-rule="nonzero" d="M130,160 C135.522847,160 140,164.477153 140,170 C140,175.522847 135.522847,180 130,180 L130,180 L110,180 C104.477153,180 100,175.522847 100,170 C100,164.477153 104.477153,160 110,160 L110,160 Z M141.055728,85.527864 C143.525621,80.5880791 149.532351,78.5858356 154.472136,81.0557281 L154.472136,81.0557281 L174.472136,91.0557281 C179.411921,93.5256206 181.414164,99.532351 178.944272,104.472136 C176.474379,109.411921 170.467649,111.414164 165.527864,108.944272 L165.527864,108.944272 L145.527864,98.9442719 C140.588079,96.4743794 138.585836,90.467649 141.055728,85.527864 Z M85.527864,81.0557281 C90.467649,78.5858356 96.4743794,80.5880791 98.9442719,85.527864 C101.414164,90.467649 99.4119209,96.4743794 94.472136,98.9442719 L94.472136,98.9442719 L74.472136,108.944272 C69.532351,111.414164 63.5256206,109.411921 61.0557281,104.472136 C58.5858356,99.532351 60.5880791,93.5256206 65.527864,91.0557281 L65.527864,91.0557281 Z"/>
  </g>
</svg>
