<svg xmlns="http://www.w3.org/2000/svg" width="240" height="240" viewBox="0 0 240 240">
  <g fill="none" fill-rule="evenodd">
    <path fill="#000" fill-rule="nonzero" d="M220,10 C225.522847,10 230,14.4771525 230,20 L230,220 C230,225.522847 225.522847,230 220,230 L20,230 C14.4771525,230 10,225.522847 10,220 L10,20 C10,14.4771525 14.4771525,10 20,10 L220,10 Z M210,30 L30,30 L30,210 L210,210 L210,30 Z"/>
    <path fill="#000" fill-rule="nonzero" d="M120.5,140 C135.282206,140 149.13373,144.245678 161.694817,151.272859 C166.054383,153.711778 169.957399,156.326864 173.367215,158.958233 C174.581803,159.895535 175.655899,160.775804 176.584449,161.579494 C177.180751,162.095614 177.619891,162.495134 177.896552,162.758621 C181.895855,166.567481 182.05024,172.897248 178.241379,176.896552 C174.432519,180.895855 168.102752,181.05024 164.027439,177.172253 C163.886585,177.044107 163.709025,176.886457 163.495629,176.701756 C162.844589,176.138259 162.059799,175.49509 161.14841,174.791767 C158.484007,172.735636 155.39093,170.663222 151.930183,168.727141 C142.14752,163.254322 131.530294,160 120.5,160 C109.469706,160 98.8524798,163.254322 89.0698165,168.727141 C85.6090704,170.663222 82.515993,172.735636 79.8515898,174.791767 C78.9402011,175.49509 78.1554112,176.138259 77.5043709,176.701756 C77.2909747,176.886457 77.113415,177.044107 76.8965517,177.241379 C72.8972484,181.05024 66.567481,180.895855 62.7586207,176.896552 C58.9497603,172.897248 59.1041449,166.567481 63.1034483,162.758621 C63.3801095,162.495134 63.8192488,162.095614 64.415551,161.579494 C65.3441005,160.775804 66.4181973,159.895535 67.6327852,158.958233 C71.0426007,156.326864 74.9456171,153.711778 79.3051835,151.272859 C91.8662702,144.245678 105.717794,140 120.5,140 Z M162.928932,62.9289322 C166.834175,59.0236893 173.165825,59.0236893 177.071068,62.9289322 C180.976311,66.8341751 180.976311,73.1658249 177.071068,77.0710678 L177.071068,77.0710678 L157.071068,97.0710678 C153.165825,100.976311 146.834175,100.976311 142.928932,97.0710678 C139.023689,93.1658249 139.023689,86.8341751 142.928932,82.9289322 L142.928932,82.9289322 Z M62.9289322,62.9289322 C66.8341751,59.0236893 73.1658249,59.0236893 77.0710678,62.9289322 L77.0710678,62.9289322 L97.0710678,82.9289322 C100.976311,86.8341751 100.976311,93.1658249 97.0710678,97.0710678 C93.1658249,100.976311 86.8341751,100.976311 82.9289322,97.0710678 L82.9289322,97.0710678 L62.9289322,77.0710678 C59.0236893,73.1658249 59.0236893,66.8341751 62.9289322,62.9289322 Z"/>
  </g>
</svg>
