<svg xmlns="http://www.w3.org/2000/svg" width="240" height="240" viewBox="0 0 240 240">
  <g fill="none" fill-rule="evenodd">
    <path fill="#000" fill-rule="nonzero" d="M220,10 C225.522847,10 230,14.4771525 230,20 L230,220 C230,225.522847 225.522847,230 220,230 L20,230 C14.4771525,230 10,225.522847 10,220 L10,20 C10,14.4771525 14.4771525,10 20,10 L220,10 Z M30,30 L30,210 L210,210 L210,30 L30,30 Z"/>
    <path fill="#000" fill-rule="nonzero" d="M150,160 C155.522847,160 160,164.477153 160,170 C160,175.522847 155.522847,180 150,180 L150,180 L90,180 C84.4771525,180 80,175.522847 80,170 C80,164.477153 84.4771525,160 90,160 L90,160 Z M90,90 C95.5228475,90 100,94.4771525 100,100 C100,105.522847 95.5228475,110 90,110 L90,110 L70,110 C64.4771525,110 60,105.522847 60,100 C60,94.4771525 64.4771525,90 70,90 L70,90 Z M170,90 C175.522847,90 180,94.4771525 180,100 C180,105.522847 175.522847,110 170,110 L170,110 L150,110 C144.477153,110 140,105.522847 140,100 C140,94.4771525 144.477153,90 150,90 L150,90 Z"/>
  </g>
</svg>
