<svg xmlns="http://www.w3.org/2000/svg" width="240" height="240" viewBox="0 0 240 240">
  <path fill-rule="evenodd" d="M100,20 L100,40 L140,40 L140,20 L180,20 L180,40 L160,40 L160,80 L180,80 L180,40 L200,40 L200,100 L220,100 L220,140 L240,140 L240,180 L220,180 L220,200 L240,200 L240,220 L0,220 L0,200 L19,200 L19,180 L0,180 L1.12826415e-12,140 L19,140 L19,100 L40,100 L40,40 L60,40 L60,20 L100,20 Z M180,120 L60,120 L60,160 L80,160 L80,180 L100,180 L100,200 L140,200 L140,180 L160,180 L160,160 L180,160 L180,120 Z M80,40 L60,40 L60,80 L80,80 L80,40 Z"/>
</svg>
