<svg xmlns="http://www.w3.org/2000/svg" width="160" height="240" viewBox="0 0 160 240">
  <path d="M80,20 C110.375661,20 135,44.6243388 135,75 C135,84.0056497 132.835572,92.5057702 128.998539,100.008538 C141.958931,112.713103 150,130.417505 150,150 C150,188.659932 118.659932,220 80,220 C41.3400675,220 10,188.659932 10,150 C10,130.417505 18.0410688,112.713103 31.0014614,100.008538 C27.1644283,92.5057702 25,84.0056497 25,75 C25,44.6243388 49.6243388,20 80,20 Z M80,40 C60.6700338,40 45,55.6700338 45,75 C45,87.0623641 51.1020057,97.6995284 60.3875776,103.993054 C42.5217863,111.618895 30,129.347137 30,150 C30,177.614237 52.3857625,200 80,200 C107.614237,200 130,177.614237 130,150 C130,129.347137 117.478214,111.618895 99.6124224,103.993054 C108.897994,97.6995284 115,87.0623641 115,75 C115,55.6700338 99.3299662,40 80,40 Z"/>
</svg>
