<svg xmlns="http://www.w3.org/2000/svg" width="220" height="240" viewBox="0 0 220 240">
  <path fill-rule="evenodd" d="M120.206948,140 C122.078127,156.851823 136.40732,170 153.75,170 C172.36,170 187.5,154.86 187.5,136.25 C187.5,125.32 185.77,112.41 172.93,99.57 C160.81,87.45 124.1,61.82 110,52.11 C95.9,61.82 59.19,87.45 47.07,99.57 C34.23,112.41 32.5,125.32 32.5,136.25 C32.5,154.86 47.64,170 66.25,170 C83.5926795,170 97.9218734,156.851823 99.793052,140 C100,134 104.477153,130 110,130 C115.522847,130 120,134 120.206948,140 Z M148.978189,206.326063 L160,210 L160,220 L60,220 L60,210 L71.0218109,206.326063 C80.0215514,203.32615 87.5581578,194.207782 89.5090425,184.701188 C82.4680083,188.096472 74.5790529,190 66.25,190 C36.61,190 12.5,165.89 12.5,136.25 C12.5,123.2 14.62,103.74 32.93,85.43 C49.31,69.02 102.14,33.23 104.39,31.72 C106.09,30.57 108.05,30 110,30 C111.95,30 113.91,30.57 115.61,31.72 C117.84,33.23 170.66,69.02 187.07,85.43 C205.38,103.74 207.5,123.2 207.5,136.25 C207.5,165.89 183.39,190 153.75,190 C145.420771,190 137.531658,188.096391 130.490511,184.700973 C132.440659,194.210871 139.977525,203.325842 148.978189,206.326063 Z"/>
</svg>
