<svg xmlns="http://www.w3.org/2000/svg" width="220" height="240" viewBox="0 0 220 240">
  <path fill-rule="evenodd" d="M110,120 C104.477153,120 100,116 99.793052,110 C97.9218734,93.1481765 83.5926795,80 66.25,80 C47.64,80 32.5,95.14 32.5,113.75 C32.5,124.68 34.23,137.59 47.07,150.43 C59.19,162.55 95.9,188.18 110,197.89 C124.1,188.18 160.81,162.55 172.93,150.43 C185.77,137.59 187.5,124.68 187.5,113.75 C187.5,95.14 172.36,80 153.75,80 C136.40732,80 122.078127,93.1481765 120.206948,110 C120,116 115.522847,120 110,120 Z M104.39,218.28 C102.14,216.77 49.31,180.98 32.93,164.57 C14.62,146.26 12.5,126.8 12.5,113.75 C12.5,84.11 36.61,60 66.25,60 C84.27,60 100.23,68.91 110,82.56 C119.77,68.91 135.73,60 153.75,60 C183.39,60 207.5,84.11 207.5,113.75 C207.5,126.8 205.38,146.26 187.07,164.57 C170.66,180.98 117.84,216.77 115.61,218.28 C113.91,219.43 111.95,220 110,220 C108.05,220 106.09,219.43 104.39,218.28 Z"/>
</svg>
