<svg xmlns="http://www.w3.org/2000/svg" width="220" height="240" viewBox="0 0 220 240">
  <path fill-rule="evenodd" d="M148.978189,206.326063 L160,210 L160,220 L60,220 L60,210 L71.0218109,206.326063 C80.1789094,203.273697 87.8212615,193.887047 89.6062296,184.202202 C82.2024677,187.912074 73.8450645,190 65,190 C34.6243388,190 10,165.375661 10,135 C10,109.811839 26.9319129,88.5783376 50.0347175,82.0605179 C50.0347175,47 76.862915,20 110,20 C143.137085,20 170,47 169.965283,82.0605179 C193.068087,88.5783376 210,109.811839 210,135 C210,165.375661 185.375661,190 155,190 C146.154789,190 137.797256,187.912005 130.393402,184.202018 C132.177657,193.890392 139.820217,203.273406 148.978189,206.326063 Z M120.512301,141 C123.357791,157.471251 137.715772,170 155,170 C174.329966,170 190,154.329966 190,135 C190,115.670034 174.329966,100 155,100 C150.950136,100 147.060926,100.687842 143.442822,101.953073 C147.588148,95.6509525 150,88.1071354 150,80 C150,57.90861 132.09139,40 110,40 C87.90861,40 70,57.90861 70,80 C70,88.1071354 72.4118519,95.6509525 76.5571778,101.953073 C72.9390742,100.687842 69.0498641,100 65,100 C45.6700338,100 30,115.670034 30,135 C30,154.329966 45.6700338,170 65,170 C82.2842276,170 96.6422092,157.471251 99.487699,141 C100,134 104.477153,130 110,130 C115.522847,130 119.950625,134 120.512301,141 Z"/>
</svg>
