<svg xmlns="http://www.w3.org/2000/svg" width="220" height="240" viewBox="0 0 220 240">
  <path d="M100 30L100 50C100 55.5228475 104.477153 60 110 60 115.522847 60 120 55.5228475 120 50L120 30C120 24.4771525 115.522847 20 110 20 104.477153 20 100 24.4771525 100 30zM166.568542 49.2893219L152.426407 63.4314575C148.521164 67.3367004 148.521164 73.6683502 152.426407 77.5735931 156.33165 81.478836 162.6633 81.478836 166.568542 77.5735931L180.710678 63.4314575C184.615921 59.5262146 184.615921 53.1945648 180.710678 49.2893219 176.805435 45.384079 170.473785 45.384079 166.568542 49.2893219zM200 110L180 110C174.477153 110 170 114.477153 170 120 170 125.522847 174.477153 130 180 130L200 130C205.522847 130 210 125.522847 210 120 210 114.477153 205.522847 110 200 110zM180.710678 176.568542L166.568542 162.426407C162.6633 158.521164 156.33165 158.521164 152.426407 162.426407 148.521164 166.33165 148.521164 172.6633 152.426407 176.568542L166.568542 190.710678C170.473785 194.615921 176.805435 194.615921 180.710678 190.710678 184.615921 186.805435 184.615921 180.473785 180.710678 176.568542zM120 210L120 190C120 184.477153 115.522847 180 110 180 104.477153 180 100 184.477153 100 190L100 210C100 215.522847 104.477153 220 110 220 115.522847 220 120 215.522847 120 210zM53.4314575 190.710678L67.5735931 176.568542C71.478836 172.6633 71.478836 166.33165 67.5735931 162.426407 63.6683502 158.521164 57.3367004 158.521164 53.4314575 162.426407L39.2893219 176.568542C35.384079 180.473785 35.384079 186.805435 39.2893219 190.710678 43.1945648 194.615921 49.5262146 194.615921 53.4314575 190.710678zM20 130L40 130C45.5228475 130 50 125.522847 50 120 50 114.477153 45.5228475 110 40 110L20 110C14.4771525 110 10 114.477153 10 120 10 125.522847 14.4771525 130 20 130zM39.2893219 63.4314575L53.4314575 77.5735931C57.3367004 81.478836 63.6683502 81.478836 67.5735931 77.5735931 71.478836 73.6683502 71.478836 67.3367004 67.5735931 63.4314575L53.4314575 49.2893219C49.5262146 45.384079 43.1945648 45.384079 39.2893219 49.2893219 35.384079 53.1945648 35.384079 59.5262146 39.2893219 63.4314575zM110 160C87.90861 160 70 142.09139 70 120 70 97.90861 87.90861 80 110 80 132.09139 80 150 97.90861 150 120 150 142.09139 132.09139 160 110 160zM110 140C121.045695 140 130 131.045695 130 120 130 108.954305 121.045695 100 110 100 98.954305 100 90 108.954305 90 120 90 131.045695 98.954305 140 110 140z"/>
</svg>
