<svg xmlns="http://www.w3.org/2000/svg" width="220" height="240" viewBox="0 0 220 240">
  <path d="M120,120.000488 L120,190.00385 C120,195.525167 124.475319,200 130,200 C135.525914,200 140,195.527035 140,190 C140,184.477153 144.477153,180 150,180 C155.522847,180 160,184.477153 160,190 C160,206.573852 146.570488,220 130,220 C113.430111,220 100,206.571348 100,190.00385 L100,120.000488 L20,120.000488 C13.9145105,120.000488 9.23989138,114.610613 10.1005037,108.586284 C10.1372846,108.328816 10.1996957,107.941864 10.2916387,107.433755 C10.43206,106.657737 10.609778,105.77781 10.8287717,104.802286 C11.4374138,102.091043 12.2586732,99.1016381 13.3256604,95.9006542 C16.3580521,86.8034157 20.7734562,77.7128144 26.8626461,69.1878891 C42.766454,46.9224027 66.8888684,32.7097767 100,30.3490132 L100,30 C100,24.4771525 104.477153,20 110,20 C115.522847,20 120,24.4771525 120,30 L120,30.3490132 C153.111132,32.7097767 177.233546,46.9224027 193.137354,69.1878891 C199.226544,77.7128144 203.641948,86.8034157 206.67434,95.9006542 C207.741327,99.1016381 208.562586,102.091043 209.171228,104.802286 C209.390222,105.77781 209.56794,106.657737 209.708361,107.433755 C209.800304,107.941864 209.862715,108.328816 209.899496,108.586284 C210.760109,114.610613 206.08549,120.000488 200,120.000488 L120,120.000488 L120,120.000488 Z M176.862646,80.8125992 C163.075881,61.5109938 141.698471,50 110,50 C78.3015295,50 56.9241188,61.5109938 43.1373539,80.8125992 C38.781016,86.9115148 35.4701687,93.4367776 33.0757028,100.000488 L186.924297,100.000488 C184.529831,93.4367776 181.218984,86.9115148 176.862646,80.8125992 Z"/>
</svg>
